<svg width="22" height="19" viewBox="0 0 22 19" fill="none" xmlns="http://www.w3.org/2000/svg">
<path d="M21.4997 6.18749C21.5013 6.90173 21.3613 7.60919 21.0878 8.26895C20.8142 8.92872 20.4125 9.5277 19.906 10.0312L11.5341 18.5269C11.4643 18.5977 11.3811 18.654 11.2894 18.6924C11.1977 18.7308 11.0992 18.7506 10.9997 18.7506C10.9003 18.7506 10.8018 18.7308 10.7101 18.6924C10.6183 18.654 10.5352 18.5977 10.4654 18.5269L2.0935 10.0312C1.07283 9.01182 0.498927 7.62869 0.498048 6.18612C0.497169 4.74356 1.06938 3.35972 2.08881 2.33906C3.10823 1.31839 4.49137 0.744487 5.93393 0.743608C7.3765 0.742728 8.76033 1.31494 9.781 2.33437L10.9997 3.47343L12.2269 2.33062C12.9886 1.57273 13.9577 1.0575 15.012 0.84996C16.0663 0.642422 17.1584 0.751886 18.1505 1.16453C19.1426 1.57718 19.9902 2.2745 20.5863 3.16848C21.1824 4.06246 21.5002 5.113 21.4997 6.18749Z" fill="#FF0000"/>
</svg>
