<svg width="21" height="19" viewBox="0 0 21 19" fill="none" xmlns="http://www.w3.org/2000/svg">
<path d="M20.8125 6.25392C20.7424 6.17375 20.6559 6.10946 20.5589 6.06532C20.4619 6.02119 20.3566 5.99824 20.25 5.99798H16.0904L11.0626 0.253922C10.9922 0.174117 10.9056 0.110201 10.8086 0.0664215C10.7116 0.0226418 10.6065 0 10.5001 0C10.3936 0 10.2885 0.0226418 10.1915 0.0664215C10.0945 0.110201 10.0079 0.174117 9.93755 0.253922L4.90974 5.99798H0.75005C0.643161 5.99798 0.537506 6.02082 0.440164 6.06498C0.342823 6.10913 0.256044 6.17359 0.185645 6.25402C0.115245 6.33445 0.0628513 6.429 0.0319742 6.53133C0.001097 6.63366 -0.00754999 6.74141 0.00661279 6.84736L1.41943 17.4467C1.46871 17.8065 1.64633 18.1363 1.91955 18.3754C2.19278 18.6145 2.54322 18.7468 2.9063 18.748H18.0938C18.4569 18.7468 18.8073 18.6145 19.0805 18.3754C19.3538 18.1363 19.5314 17.8065 19.5807 17.4467L20.9935 6.84736C21.0074 6.74126 20.9985 6.63341 20.9673 6.53105C20.936 6.4287 20.8833 6.3342 20.8125 6.25392ZM6.15005 15.748C6.12476 15.7494 6.09941 15.7494 6.07411 15.748C5.88754 15.7489 5.70731 15.6803 5.56863 15.5555C5.42995 15.4307 5.34277 15.2586 5.32411 15.073L4.79911 9.82298C4.77922 9.62507 4.83877 9.42735 4.96465 9.27334C5.09053 9.11933 5.27244 9.02163 5.47036 9.00173C5.66828 8.98184 5.86599 9.04139 6.02001 9.16727C6.17402 9.29316 6.27172 9.47507 6.29161 9.67298L6.81661 14.923C6.83762 15.1208 6.77919 15.3188 6.65419 15.4735C6.52918 15.6282 6.34784 15.727 6.15005 15.748ZM11.2501 14.998C11.2501 15.1969 11.171 15.3877 11.0304 15.5283C10.8897 15.669 10.699 15.748 10.5001 15.748C10.3011 15.748 10.1104 15.669 9.96972 15.5283C9.82907 15.3877 9.75005 15.1969 9.75005 14.998V9.74798C9.75005 9.54907 9.82907 9.35831 9.96972 9.21765C10.1104 9.077 10.3011 8.99798 10.5001 8.99798C10.699 8.99798 10.8897 9.077 11.0304 9.21765C11.171 9.35831 11.2501 9.54907 11.2501 9.74798V14.998ZM4.90974 5.99798L10.5001 1.88705L16.0904 5.99798H4.90974ZM16.1963 9.82298L15.6713 15.073C15.6527 15.2578 15.5662 15.4292 15.4285 15.5539C15.2908 15.6786 15.1118 15.7478 14.926 15.748C14.9007 15.7494 14.8753 15.7494 14.85 15.748C14.7521 15.7381 14.657 15.7091 14.5702 15.6625C14.4834 15.6159 14.4067 15.5526 14.3443 15.4764C14.282 15.4001 14.2353 15.3123 14.2069 15.218C14.1785 15.1237 14.169 15.0247 14.1788 14.9267L14.7038 9.67673C14.7237 9.47882 14.8214 9.29691 14.9754 9.17102C15.1294 9.04514 15.3271 8.98559 15.5251 9.00548C15.723 9.02538 15.9049 9.12307 16.0308 9.27709C16.1566 9.4311 16.2162 9.62882 16.1963 9.82673V9.82298Z" fill="black"/>
</svg>
