<svg width="38" height="43" viewBox="0 0 38 43" fill="none" xmlns="http://www.w3.org/2000/svg">
<path d="M37.5688 31.412C36.4702 29.4356 34.8371 23.8433 34.8371 16.5392C34.8371 12.1527 33.1686 7.94591 30.1988 4.84421C27.2289 1.74252 23.201 0 19.001 0C14.801 0 10.773 1.74252 7.8032 4.84421C4.83336 7.94591 3.16492 12.1527 3.16492 16.5392C3.16492 23.8454 1.52985 29.4356 0.431218 31.412C0.150663 31.9145 0.0019306 32.4853 1.86687e-05 33.067C-0.00189327 33.6487 0.143083 34.2206 0.420328 34.725C0.697573 35.2295 1.09728 35.6487 1.57915 35.9403C2.06101 36.232 2.60799 36.3858 3.16492 36.3862H11.2433C11.6087 38.2534 12.5803 39.9315 13.9939 41.1366C15.4075 42.3418 17.1762 43 19.001 43C20.8257 43 22.5945 42.3418 24.0081 41.1366C25.4217 39.9315 26.3933 38.2534 26.7587 36.3862H34.8371C35.3938 36.3854 35.9406 36.2314 36.4221 35.9396C36.9037 35.6478 37.3032 35.2285 37.5802 34.7241C37.8572 34.2197 38.002 33.648 38 33.0665C37.998 32.485 37.8493 31.9143 37.5688 31.412ZM19.001 39.694C18.0188 39.6937 17.0608 39.3755 16.259 38.7831C15.4571 38.1907 14.8507 37.3533 14.5233 36.3862H23.4786C23.1512 37.3533 22.5449 38.1907 21.743 38.7831C20.9411 39.3755 19.9832 39.6937 19.001 39.694ZM3.16492 33.0784C4.68914 30.3411 6.33213 23.9983 6.33213 16.5392C6.33213 13.03 7.66688 9.66456 10.0428 7.18321C12.4186 4.70185 15.641 3.30784 19.001 3.30784C22.361 3.30784 25.5834 4.70185 27.9592 7.18321C30.3351 9.66456 31.6698 13.03 31.6698 16.5392C31.6698 23.9921 33.3089 30.3349 34.8371 33.0784H3.16492Z" fill="#8000FF"/>
</svg>
