<svg width="43" height="43" viewBox="0 0 43 43" fill="none" xmlns="http://www.w3.org/2000/svg">
<path d="M42.625 8.53342C42.4755 8.35454 42.2886 8.21066 42.0774 8.11195C41.8662 8.01324 41.6359 7.96209 41.4028 7.96213H9.29175L8.08151 1.30778C8.01485 0.940861 7.82153 0.608974 7.53525 0.369982C7.24897 0.130991 6.88789 5.38981e-05 6.51497 0H1.59242C1.17008 0 0.765044 0.167773 0.466408 0.466411C0.167772 0.765049 0 1.17009 0 1.59243C0 2.01476 0.167772 2.4198 0.466408 2.71844C0.765044 3.01708 1.17008 3.18485 1.59242 3.18485H5.17535L10.2631 31.11C10.413 31.9382 10.779 32.7121 11.3241 33.3534C10.5717 34.0561 10.0287 34.9534 9.75526 35.9459C9.48177 36.9383 9.48851 37.9871 9.7747 38.976C10.0609 39.9649 10.6154 40.8552 11.3767 41.5481C12.1379 42.2411 13.0763 42.7097 14.0876 42.902C15.099 43.0942 16.1438 43.0026 17.1062 42.6373C18.0687 42.272 18.9111 41.6472 19.5402 40.8323C20.1693 40.0175 20.5604 39.0443 20.6701 38.0207C20.7799 36.9971 20.604 35.9631 20.162 35.0334H29.2029C28.8467 35.7792 28.6623 36.5955 28.6635 37.422C28.6635 38.5244 28.9904 39.6019 29.6028 40.5185C30.2152 41.4351 31.0857 42.1494 32.1041 42.5713C33.1225 42.9931 34.2431 43.1035 35.3243 42.8884C36.4054 42.6734 37.3985 42.1426 38.178 41.3631C38.9574 40.5836 39.4883 39.5905 39.7033 38.5094C39.9184 37.4282 39.808 36.3076 39.3861 35.2891C38.9643 34.2707 38.2499 33.4003 37.3334 32.7878C36.4168 32.1754 35.3393 31.8485 34.2369 31.8485H14.9627C14.5898 31.8485 14.2287 31.7175 13.9425 31.4786C13.6562 31.2396 13.4629 30.9077 13.3962 30.5408L12.7652 27.0713H35.8552C36.974 27.0711 38.0572 26.6783 38.9161 25.9613C39.7749 25.2443 40.3549 24.2487 40.5549 23.1479L42.9753 9.83921C43.0163 9.60918 43.0062 9.37295 42.9456 9.14729C42.8851 8.92162 42.7756 8.71204 42.625 8.53342ZM17.5166 37.422C17.5166 37.8945 17.3765 38.3563 17.114 38.7491C16.8516 39.1419 16.4785 39.4481 16.042 39.6288C15.6056 39.8096 15.1253 39.8569 14.662 39.7648C14.1986 39.6726 13.773 39.4451 13.4389 39.111C13.1049 38.777 12.8774 38.3514 12.7852 37.888C12.6931 37.4247 12.7404 36.9444 12.9211 36.5079C13.1019 36.0715 13.4081 35.6984 13.8009 35.4359C14.1937 35.1735 14.6555 35.0334 15.128 35.0334C15.7615 35.0334 16.369 35.285 16.817 35.733C17.2649 36.181 17.5166 36.7885 17.5166 37.422ZM36.6256 37.422C36.6256 37.8945 36.4855 38.3563 36.223 38.7491C35.9605 39.1419 35.5875 39.4481 35.151 39.6288C34.7146 39.8096 34.2343 39.8569 33.7709 39.7648C33.3076 39.6726 32.882 39.4451 32.5479 39.111C32.2139 38.777 31.9864 38.3514 31.8942 37.888C31.802 37.4247 31.8494 36.9444 32.0301 36.5079C32.2109 36.0715 32.5171 35.6984 32.9099 35.4359C33.3027 35.1735 33.7645 35.0334 34.2369 35.0334C34.8704 35.0334 35.478 35.285 35.9259 35.733C36.3739 36.181 36.6256 36.7885 36.6256 37.422ZM37.4218 22.5786C37.3549 22.9465 37.1607 23.2792 36.8732 23.5183C36.5857 23.7574 36.2232 23.8877 35.8493 23.8864H12.186L9.87099 11.147H39.4939L37.4218 22.5786Z" fill="#8000FF"/>
</svg>
