<svg width="50" height="43" viewBox="0 0 50 43" fill="none" xmlns="http://www.w3.org/2000/svg">
<path d="M36.1607 0C31.5513 0 27.5156 1.98922 25 5.35163C22.4844 1.98922 18.4487 0 13.8393 0C10.1701 0.00415034 6.65247 1.46875 4.058 4.07249C1.46353 6.67622 0.00413557 10.2065 0 13.8887C0 29.5695 23.1674 42.2619 24.154 42.7861C24.4141 42.9265 24.7047 43 25 43C25.2953 43 25.5859 42.9265 25.846 42.7861C26.8326 42.2619 50 29.5695 50 13.8887C49.9959 10.2065 48.5365 6.67622 45.942 4.07249C43.3475 1.46875 39.8298 0.00415034 36.1607 0ZM25 39.1572C20.9241 36.7737 3.57143 25.9158 3.57143 13.8887C3.57497 11.1569 4.6579 8.53793 6.58273 6.60623C8.50756 4.67453 11.1172 3.58773 13.8393 3.58418C18.1808 3.58418 21.8259 5.90493 23.3482 9.63248C23.4827 9.96117 23.7116 10.2423 24.0057 10.4401C24.2998 10.638 24.6459 10.7436 25 10.7436C25.3541 10.7436 25.7002 10.638 25.9943 10.4401C26.2884 10.2423 26.5172 9.96117 26.6518 9.63248C28.1741 5.89821 31.8192 3.58418 36.1607 3.58418C38.8828 3.58773 41.4924 4.67453 43.4173 6.60623C45.3421 8.53793 46.425 11.1569 46.4286 13.8887C46.4286 25.8979 29.0714 36.7714 25 39.1572Z" fill="#8000FF"/>
</svg>
