<svg width="36" height="36" viewBox="0 0 36 36" fill="none" xmlns="http://www.w3.org/2000/svg">
<path d="M35.5947 33.6376L26.9381 24.9827C29.4471 21.9705 30.6982 18.1069 30.4312 14.1957C30.1642 10.2845 28.3995 6.62678 25.5044 3.9835C22.6092 1.34022 18.8065 -0.0851357 14.8872 0.00393672C10.9679 0.0930092 7.23381 1.68966 4.46173 4.46173C1.68966 7.23381 0.0930092 10.9679 0.00393672 14.8872C-0.0851357 18.8065 1.34022 22.6092 3.9835 25.5044C6.62678 28.3995 10.2845 30.1642 14.1957 30.4312C18.1069 30.6982 21.9705 29.4471 24.9827 26.9381L33.6376 35.5947C33.7661 35.7232 33.9186 35.8251 34.0865 35.8947C34.2544 35.9642 34.4344 36 34.6161 36C34.7978 36 34.9778 35.9642 35.1457 35.8947C35.3136 35.8251 35.4662 35.7232 35.5947 35.5947C35.7232 35.4662 35.8251 35.3136 35.8947 35.1457C35.9642 34.9778 36 34.7978 36 34.6161C36 34.4344 35.9642 34.2544 35.8947 34.0865C35.8251 33.9186 35.7232 33.7661 35.5947 33.6376ZM2.80445 15.2525C2.80445 12.7905 3.53451 10.3838 4.90232 8.33673C6.27013 6.28966 8.21425 4.69416 10.4888 3.752C12.7634 2.80983 15.2663 2.56332 17.681 3.04363C20.0957 3.52394 22.3137 4.7095 24.0546 6.45039C25.7955 8.19128 26.981 10.4093 27.4613 12.824C27.9417 15.2387 27.6951 17.7416 26.753 20.0161C25.8108 22.2907 24.2153 24.2349 22.1683 25.6027C20.1212 26.9705 17.7145 27.7005 15.2525 27.7005C11.9522 27.6969 8.7881 26.3842 6.45444 24.0505C4.12077 21.7169 2.80811 18.5528 2.80445 15.2525Z" fill="white"/>
</svg>
